# xmcd CD database file
#
# Track frame offsets:
#	150
#	23483
#	42926
#	60336
#	77253
#	86336
#	107336
#	116703
#	133963
#	137441
#	158983
#	168296
#	186189
#	202750
#
# Disc length: 3020 seconds
#
# Revision: 0
# Processed by: cddbd v1.5.1PL2 Copyright (c) Steve Scherf et al.
# Submitted via: CDex 1.51
#
DISCID=a10bca0e
DTITLE=The Steeles - We Worship You
DYEAR=1900
DGENRE=Blues
TTITLE0=Let My People Go
TTITLE1=It Is Well
TTITLE2=The Rock
TTITLE3=I Will Be Right There
TTITLE4=Nothing But The Blood Part 1
TTITLE5=Nothing But The Blood Part 2
TTITLE6=Have Thine Own Way Part 1
TTITLE7=Have Thine Own Way Part 2
TTITLE8=Call Him Up Part 1
TTITLE9=Call Him Up Part 2
TTITLE10=We Will See You Through
TTITLE11=We Worship You
TTITLE12=This Little Light Of Mine
TTITLE13=You Will Know
EXTD=
EXTT0=
EXTT1=
EXTT2=
EXTT3=
EXTT4=
EXTT5=
EXTT6=
EXTT7=
EXTT8=
EXTT9=
EXTT10=
EXTT11=
EXTT12=
EXTT13=
PLAYORDER=
